<svg width="688" height="192" viewBox="0 0 688 192" fill="none" xmlns="http://www.w3.org/2000/svg">
<path d="M258.16 75.88C264 75.88 269.28 77.24 274 79.96C278.72 82.68 282.4 86.44 285.04 91.24C287.76 96.04 289.12 101.52 289.12 107.68C289.12 113.84 287.76 119.36 285.04 124.24C282.4 129.04 278.72 132.8 274 135.52C269.28 138.16 264 139.48 258.16 139.48C252.64 139.48 247.64 138.2 243.16 135.64C238.68 133 235.2 129.36 232.72 124.72V162.28H226.72V76.36H232.48V91.12C234.96 86.32 238.44 82.6 242.92 79.96C247.48 77.24 252.56 75.88 258.16 75.88ZM257.8 134.08C262.6 134.08 266.92 132.96 270.76 130.72C274.6 128.48 277.6 125.36 279.76 121.36C282 117.36 283.12 112.8 283.12 107.68C283.12 102.56 282 98 279.76 94C277.6 90 274.6 86.88 270.76 84.64C266.92 82.4 262.6 81.28 257.8 81.28C253 81.28 248.68 82.4 244.84 84.64C241.08 86.88 238.08 90 235.84 94C233.68 98 232.6 102.56 232.6 107.68C232.6 112.8 233.68 117.36 235.84 121.36C238.08 125.36 241.08 128.48 244.84 130.72C248.68 132.96 253 134.08 257.8 134.08ZM307.697 76.36H313.697V139H307.697V76.36ZM310.697 61.12C309.337 61.12 308.177 60.68 307.217 59.8C306.257 58.84 305.777 57.68 305.777 56.32C305.777 54.96 306.257 53.8 307.217 52.84C308.177 51.88 309.337 51.4 310.697 51.4C312.057 51.4 313.217 51.88 314.177 52.84C315.137 53.72 315.617 54.84 315.617 56.2C315.617 57.56 315.137 58.72 314.177 59.68C313.217 60.64 312.057 61.12 310.697 61.12ZM378.826 139L357.346 111.04L335.866 139H329.026L353.866 106.72L330.346 76.36H337.186L357.346 102.4L377.506 76.36H384.226L360.706 106.72L385.906 139H378.826ZM403.132 49.96H408.772V162.28H403.132V49.96ZM460.974 139.48C454.894 139.48 449.454 138.12 444.654 135.4C439.854 132.68 436.094 128.92 433.374 124.12C430.654 119.24 429.294 113.76 429.294 107.68C429.294 101.52 430.654 96.04 433.374 91.24C436.094 86.36 439.854 82.6 444.654 79.96C449.454 77.24 454.894 75.88 460.974 75.88C466.014 75.88 470.574 76.88 474.654 78.88C478.814 80.8 482.174 83.64 484.734 87.4L480.294 90.64C478.054 87.52 475.254 85.2 471.894 83.68C468.614 82.08 464.974 81.28 460.974 81.28C456.094 81.28 451.694 82.4 447.774 84.64C443.934 86.8 440.894 89.88 438.654 93.88C436.494 97.88 435.414 102.48 435.414 107.68C435.414 112.88 436.494 117.48 438.654 121.48C440.894 125.48 443.934 128.6 447.774 130.84C451.694 133 456.094 134.08 460.974 134.08C464.974 134.08 468.614 133.32 471.894 131.8C475.254 130.2 478.054 127.84 480.294 124.72L484.734 127.96C482.174 131.72 478.814 134.6 474.654 136.6C470.574 138.52 466.014 139.48 460.974 139.48ZM532.242 75.88C540.082 75.88 546.282 78.16 550.842 82.72C555.402 87.28 557.682 93.84 557.682 102.4V139H551.682V102.88C551.682 95.84 549.882 90.48 546.282 86.8C542.762 83.12 537.802 81.28 531.402 81.28C524.042 81.28 518.242 83.48 514.002 87.88C509.762 92.28 507.642 98.2 507.642 105.64V139H501.642V49.96H507.642V89.44C509.802 85.12 513.002 81.8 517.242 79.48C521.482 77.08 526.482 75.88 532.242 75.88ZM603.504 75.88C611.264 75.88 617.224 77.88 621.384 81.88C625.544 85.8 627.624 91.6 627.624 99.28V139H621.864V127.84C619.864 131.52 616.944 134.4 613.104 136.48C609.264 138.48 604.664 139.48 599.304 139.48C592.344 139.48 586.824 137.84 582.744 134.56C578.744 131.28 576.744 126.96 576.744 121.6C576.744 116.4 578.584 112.2 582.264 109C586.024 105.72 591.984 104.08 600.144 104.08H621.624V99.04C621.624 93.2 620.024 88.76 616.824 85.72C613.704 82.68 609.104 81.16 603.024 81.16C598.864 81.16 594.864 81.88 591.024 83.32C587.264 84.76 584.064 86.68 581.424 89.08L578.424 84.76C581.544 81.96 585.304 79.8 589.704 78.28C594.104 76.68 598.704 75.88 603.504 75.88ZM600.144 134.56C605.344 134.56 609.744 133.36 613.344 130.96C617.024 128.56 619.784 125.08 621.624 120.52V108.76H600.264C594.104 108.76 589.624 109.88 586.824 112.12C584.104 114.36 582.744 117.44 582.744 121.36C582.744 125.44 584.264 128.68 587.304 131.08C590.344 133.4 594.624 134.56 600.144 134.56ZM683.425 135.04C681.905 136.48 679.985 137.6 677.665 138.4C675.425 139.12 673.065 139.48 670.585 139.48C665.145 139.48 660.945 138 657.985 135.04C655.025 132 653.545 127.8 653.545 122.44V81.52H642.025V76.36H653.545V62.68H659.545V76.36H679.465V81.52H659.545V121.84C659.545 125.92 660.505 129.04 662.425 131.2C664.425 133.28 667.345 134.32 671.185 134.32C675.105 134.32 678.345 133.16 680.905 130.84L683.425 135.04Z" fill="black"/>
<path d="M96 0C149.021 0 192 42.9792 192 96C192 149.021 149.021 192 96 192C42.9792 192 0 149.021 0 96C0 42.9792 42.9792 0 96 0ZM105.898 58.5504H80.7072C71.2224 58.5504 63.5328 66 63.5328 75.1872V139.968L88.4448 116.246H105.898C122.342 116.246 135.667 103.334 135.667 87.3984C135.667 71.4624 122.342 58.5504 105.907 58.5504H105.898Z" fill="#7B78FD"/>
</svg>
